<?xml version="1.0" encoding="utf-8" standalone="no"?>
<!DOCTYPE svg PUBLIC "-//W3C//DTD SVG 1.1//EN"
  "http://www.w3.org/Graphics/SVG/1.1/DTD/svg11.dtd">
<!-- Created with matplotlib (https://matplotlib.org/) -->
<svg height="345.6pt" version="1.1" viewBox="0 0 460.8 345.6" width="460.8pt" xmlns="http://www.w3.org/2000/svg" xmlns:xlink="http://www.w3.org/1999/xlink">
 <defs>
  <style type="text/css">
*{stroke-linecap:butt;stroke-linejoin:round;}
  </style>
 </defs>
 <g id="figure_1">
  <g id="patch_1">
   <path d="M 0 345.6 
L 460.8 345.6 
L 460.8 0 
L 0 0 
z
" style="fill:#ffffff;"/>
  </g>
  <g id="axes_1">
   <g id="patch_2">
    <path d="M 103.104 307.584 
L 369.216 307.584 
L 369.216 41.472 
L 103.104 41.472 
z
" style="fill:#ffffff;"/>
   </g>
   <g id="PathCollection_1">
    <defs>
     <path d="M 0 2.236068 
C 0.593012 2.236068 1.161816 2.000462 1.581139 1.581139 
C 2.000462 1.161816 2.236068 0.593012 2.236068 0 
C 2.236068 -0.593012 2.000462 -1.161816 1.581139 -1.581139 
C 1.161816 -2.000462 0.593012 -2.236068 0 -2.236068 
C -0.593012 -2.236068 -1.161816 -2.000462 -1.581139 -1.581139 
C -2.000462 -1.161816 -2.236068 -0.593012 -2.236068 0 
C -2.236068 0.593012 -2.000462 1.161816 -1.581139 1.581139 
C -1.161816 2.000462 -0.593012 2.236068 0 2.236068 
z
" id="C0_0_e883168e04"/>
    </defs>
    <g clip-path="url(#pbbb4fe7834)">
     <use style="fill:#1f77b4;" x="123.574154" xlink:href="#C0_0_e883168e04" y="273.388801"/>
    </g>
    <g clip-path="url(#pbbb4fe7834)">
     <use style="fill:#1f77b4;" x="123.574154" xlink:href="#C0_0_e883168e04" y="273.388801"/>
    </g>
    <g clip-path="url(#pbbb4fe7834)">
     <use style="fill:#1f77b4;" x="123.574154" xlink:href="#C0_0_e883168e04" y="273.388801"/>
    </g>
    <g clip-path="url(#pbbb4fe7834)">
     <use style="fill:#1f77b4;" x="123.574154" xlink:href="#C0_0_e883168e04" y="273.388801"/>
    </g>
    <g clip-path="url(#pbbb4fe7834)">
     <use style="fill:#1f77b4;" x="123.574154" xlink:href="#C0_0_e883168e04" y="273.388801"/>
    </g>
    <g clip-path="url(#pbbb4fe7834)">
     <use style="fill:#1f77b4;" x="123.574154" xlink:href="#C0_0_e883168e04" y="273.388801"/>
    </g>
    <g clip-path="url(#pbbb4fe7834)">
     <use style="fill:#1f77b4;" x="123.574154" xlink:href="#C0_0_e883168e04" y="273.388801"/>
    </g>
    <g clip-path="url(#pbbb4fe7834)">
     <use style="fill:#1f77b4;" x="123.574154" xlink:href="#C0_0_e883168e04" y="273.388801"/>
    </g>
    <g clip-path="url(#pbbb4fe7834)">
     <use style="fill:#1f77b4;" x="123.574154" xlink:href="#C0_0_e883168e04" y="273.388801"/>
    </g>
    <g clip-path="url(#pbbb4fe7834)">
     <use style="fill:#1f77b4;" x="123.574154" xlink:href="#C0_0_e883168e04" y="273.388801"/>
    </g>
    <g clip-path="url(#pbbb4fe7834)">
     <use style="fill:#1f77b4;" x="123.574154" xlink:href="#C0_0_e883168e04" y="273.388801"/>
    </g>
    <g clip-path="url(#pbbb4fe7834)">
     <use style="fill:#1f77b4;" x="123.574154" xlink:href="#C0_0_e883168e04" y="273.388801"/>
    </g>
    <g clip-path="url(#pbbb4fe7834)">
     <use style="fill:#1f77b4;" x="123.574154" xlink:href="#C0_0_e883168e04" y="273.388801"/>
    </g>
    <g clip-path="url(#pbbb4fe7834)">
     <use style="fill:#1f77b4;" x="123.574154" xlink:href="#C0_0_e883168e04" y="273.388801"/>
    </g>
    <g clip-path="url(#pbbb4fe7834)">
     <use style="fill:#1f77b4;" x="123.574154" xlink:href="#C0_0_e883168e04" y="273.388801"/>
    </g>
    <g clip-path="url(#pbbb4fe7834)">
     <use style="fill:#1f77b4;" x="123.574154" xlink:href="#C0_0_e883168e04" y="273.388801"/>
    </g>
    <g clip-path="url(#pbbb4fe7834)">
     <use style="fill:#1f77b4;" x="123.574154" xlink:href="#C0_0_e883168e04" y="273.388801"/>
    </g>
    <g clip-path="url(#pbbb4fe7834)">
     <use style="fill:#1f77b4;" x="123.574154" xlink:href="#C0_0_e883168e04" y="273.388801"/>
    </g>
    <g clip-path="url(#pbbb4fe7834)">
     <use style="fill:#1f77b4;" x="123.574154" xlink:href="#C0_0_e883168e04" y="272.082894"/>
    </g>
    <g clip-path="url(#pbbb4fe7834)">
     <use style="fill:#1f77b4;" x="123.574154" xlink:href="#C0_0_e883168e04" y="267.703701"/>
    </g>
    <g clip-path="url(#pbbb4fe7834)">
     <use style="fill:#1f77b4;" x="123.574154" xlink:href="#C0_0_e883168e04" y="267.703701"/>
    </g>
    <g clip-path="url(#pbbb4fe7834)">
     <use style="fill:#1f77b4;" x="123.574154" xlink:href="#C0_0_e883168e04" y="267.703701"/>
    </g>
    <g clip-path="url(#pbbb4fe7834)">
     <use style="fill:#1f77b4;" x="123.574154" xlink:href="#C0_0_e883168e04" y="267.703701"/>
    </g>
    <g clip-path="url(#pbbb4fe7834)">
     <use style="fill:#1f77b4;" x="123.574154" xlink:href="#C0_0_e883168e04" y="267.703701"/>
    </g>
    <g clip-path="url(#pbbb4fe7834)">
     <use style="fill:#1f77b4;" x="123.574154" xlink:href="#C0_0_e883168e04" y="267.703701"/>
    </g>
    <g clip-path="url(#pbbb4fe7834)">
     <use style="fill:#1f77b4;" x="123.574154" xlink:href="#C0_0_e883168e04" y="267.703701"/>
    </g>
    <g clip-path="url(#pbbb4fe7834)">
     <use style="fill:#1f77b4;" x="123.574154" xlink:href="#C0_0_e883168e04" y="267.703701"/>
    </g>
    <g clip-path="url(#pbbb4fe7834)">
     <use style="fill:#1f77b4;" x="123.574154" xlink:href="#C0_0_e883168e04" y="267.703701"/>
    </g>
    <g clip-path="url(#pbbb4fe7834)">
     <use style="fill:#1f77b4;" x="123.574154" xlink:href="#C0_0_e883168e04" y="267.703701"/>
    </g>
    <g clip-path="url(#pbbb4fe7834)">
     <use style="fill:#1f77b4;" x="123.574154" xlink:href="#C0_0_e883168e04" y="267.703701"/>
    </g>
    <g clip-path="url(#pbbb4fe7834)">
     <use style="fill:#1f77b4;" x="123.574154" xlink:href="#C0_0_e883168e04" y="267.703701"/>
    </g>
    <g clip-path="url(#pbbb4fe7834)">
     <use style="fill:#1f77b4;" x="123.574154" xlink:href="#C0_0_e883168e04" y="267.703701"/>
    </g>
    <g clip-path="url(#pbbb4fe7834)">
     <use style="fill:#1f77b4;" x="123.574154" xlink:href="#C0_0_e883168e04" y="267.703701"/>
    </g>
    <g clip-path="url(#pbbb4fe7834)">
     <use style="fill:#1f77b4;" x="123.574154" xlink:href="#C0_0_e883168e04" y="267.703701"/>
    </g>
    <g clip-path="url(#pbbb4fe7834)">
     <use style="fill:#1f77b4;" x="123.574154" xlink:href="#C0_0_e883168e04" y="267.703701"/>
    </g>
    <g clip-path="url(#pbbb4fe7834)">
     <use style="fill:#1f77b4;" x="123.574154" xlink:href="#C0_0_e883168e04" y="267.703701"/>
    </g>
    <g clip-path="url(#pbbb4fe7834)">
     <use style="fill:#1f77b4;" x="123.574154" xlink:href="#C0_0_e883168e04" y="267.703701"/>
    </g>
    <g clip-path="url(#pbbb4fe7834)">
     <use style="fill:#1f77b4;" x="123.574154" xlink:href="#C0_0_e883168e04" y="267.703701"/>
    </g>
    <g clip-path="url(#pbbb4fe7834)">
     <use style="fill:#1f77b4;" x="123.574154" xlink:href="#C0_0_e883168e04" y="267.703701"/>
    </g>
    <g clip-path="url(#pbbb4fe7834)">
     <use style="fill:#1f77b4;" x="123.574154" xlink:href="#C0_0_e883168e04" y="267.703701"/>
    </g>
    <g clip-path="url(#pbbb4fe7834)">
     <use style="fill:#1f77b4;" x="123.574154" xlink:href="#C0_0_e883168e04" y="267.679574"/>
    </g>
    <g clip-path="url(#pbbb4fe7834)">
     <use style="fill:#1f77b4;" x="123.574154" xlink:href="#C0_0_e883168e04" y="267.397934"/>
    </g>
    <g clip-path="url(#pbbb4fe7834)">
     <use style="fill:#1f77b4;" x="123.574154" xlink:href="#C0_0_e883168e04" y="266.412431"/>
    </g>
    <g clip-path="url(#pbbb4fe7834)">
     <use style="fill:#1f77b4;" x="123.574154" xlink:href="#C0_0_e883168e04" y="265.052818"/>
    </g>
    <g clip-path="url(#pbbb4fe7834)">
     <use style="fill:#1f77b4;" x="123.574154" xlink:href="#C0_0_e883168e04" y="265.052818"/>
    </g>
    <g clip-path="url(#pbbb4fe7834)">
     <use style="fill:#1f77b4;" x="123.574154" xlink:href="#C0_0_e883168e04" y="259.663755"/>
    </g>
    <g clip-path="url(#pbbb4fe7834)">
     <use style="fill:#1f77b4;" x="123.574154" xlink:href="#C0_0_e883168e04" y="259.663755"/>
    </g>
    <g clip-path="url(#pbbb4fe7834)">
     <use style="fill:#1f77b4;" x="123.574154" xlink:href="#C0_0_e883168e04" y="259.663755"/>
    </g>
    <g clip-path="url(#pbbb4fe7834)">
     <use style="fill:#1f77b4;" x="123.574154" xlink:href="#C0_0_e883168e04" y="259.663755"/>
    </g>
    <g clip-path="url(#pbbb4fe7834)">
     <use style="fill:#1f77b4;" x="123.574154" xlink:href="#C0_0_e883168e04" y="259.663755"/>
    </g>
    <g clip-path="url(#pbbb4fe7834)">
     <use style="fill:#1f77b4;" x="123.574154" xlink:href="#C0_0_e883168e04" y="259.663755"/>
    </g>
    <g clip-path="url(#pbbb4fe7834)">
     <use style="fill:#1f77b4;" x="123.574154" xlink:href="#C0_0_e883168e04" y="259.663755"/>
    </g>
    <g clip-path="url(#pbbb4fe7834)">
     <use style="fill:#1f77b4;" x="123.574154" xlink:href="#C0_0_e883168e04" y="259.663755"/>
    </g>
    <g clip-path="url(#pbbb4fe7834)">
     <use style="fill:#1f77b4;" x="123.574154" xlink:href="#C0_0_e883168e04" y="259.663755"/>
    </g>
    <g clip-path="url(#pbbb4fe7834)">
     <use style="fill:#1f77b4;" x="123.574154" xlink:href="#C0_0_e883168e04" y="259.663755"/>
    </g>
    <g clip-path="url(#pbbb4fe7834)">
     <use style="fill:#1f77b4;" x="123.574154" xlink:href="#C0_0_e883168e04" y="259.663755"/>
    </g>
    <g clip-path="url(#pbbb4fe7834)">
     <use style="fill:#1f77b4;" x="123.574154" xlink:href="#C0_0_e883168e04" y="256.423711"/>
    </g>
    <g clip-path="url(#pbbb4fe7834)">
     <use style="fill:#1f77b4;" x="123.574154" xlink:href="#C0_0_e883168e04" y="256.423711"/>
    </g>
    <g clip-path="url(#pbbb4fe7834)">
     <use style="fill:#1f77b4;" x="123.574154" xlink:href="#C0_0_e883168e04" y="256.423711"/>
    </g>
    <g clip-path="url(#pbbb4fe7834)">
     <use style="fill:#1f77b4;" x="123.574154" xlink:href="#C0_0_e883168e04" y="256.423711"/>
    </g>
    <g clip-path="url(#pbbb4fe7834)">
     <use style="fill:#1f77b4;" x="123.574154" xlink:href="#C0_0_e883168e04" y="256.423711"/>
    </g>
    <g clip-path="url(#pbbb4fe7834)">
     <use style="fill:#1f77b4;" x="123.574154" xlink:href="#C0_0_e883168e04" y="256.423711"/>
    </g>
    <g clip-path="url(#pbbb4fe7834)">
     <use style="fill:#1f77b4;" x="123.574154" xlink:href="#C0_0_e883168e04" y="256.423711"/>
    </g>
    <g clip-path="url(#pbbb4fe7834)">
     <use style="fill:#1f77b4;" x="123.574154" xlink:href="#C0_0_e883168e04" y="256.423711"/>
    </g>
    <g clip-path="url(#pbbb4fe7834)">
     <use style="fill:#1f77b4;" x="123.574154" xlink:href="#C0_0_e883168e04" y="256.423711"/>
    </g>
    <g clip-path="url(#pbbb4fe7834)">
     <use style="fill:#1f77b4;" x="123.574154" xlink:href="#C0_0_e883168e04" y="256.423711"/>
    </g>
    <g clip-path="url(#pbbb4fe7834)">
     <use style="fill:#1f77b4;" x="123.574154" xlink:href="#C0_0_e883168e04" y="256.423711"/>
    </g>
    <g clip-path="url(#pbbb4fe7834)">
     <use style="fill:#1f77b4;" x="123.574154" xlink:href="#C0_0_e883168e04" y="256.423711"/>
    </g>
    <g clip-path="url(#pbbb4fe7834)">
     <use style="fill:#1f77b4;" x="123.574154" xlink:href="#C0_0_e883168e04" y="250.322566"/>
    </g>
    <g clip-path="url(#pbbb4fe7834)">
     <use style="fill:#1f77b4;" x="123.574154" xlink:href="#C0_0_e883168e04" y="248.293556"/>
    </g>
    <g clip-path="url(#pbbb4fe7834)">
     <use style="fill:#1f77b4;" x="123.574154" xlink:href="#C0_0_e883168e04" y="248.293556"/>
    </g>
    <g clip-path="url(#pbbb4fe7834)">
     <use style="fill:#1f77b4;" x="123.574154" xlink:href="#C0_0_e883168e04" y="248.293556"/>
    </g>
    <g clip-path="url(#pbbb4fe7834)">
     <use style="fill:#1f77b4;" x="123.574154" xlink:href="#C0_0_e883168e04" y="248.293556"/>
    </g>
    <g clip-path="url(#pbbb4fe7834)">
     <use style="fill:#1f77b4;" x="123.574154" xlink:href="#C0_0_e883168e04" y="248.293556"/>
    </g>
    <g clip-path="url(#pbbb4fe7834)">
     <use style="fill:#1f77b4;" x="123.574154" xlink:href="#C0_0_e883168e04" y="248.293556"/>
    </g>
    <g clip-path="url(#pbbb4fe7834)">
     <use style="fill:#1f77b4;" x="123.574154" xlink:href="#C0_0_e883168e04" y="248.246006"/>
    </g>
    <g clip-path="url(#pbbb4fe7834)">
     <use style="fill:#1f77b4;" x="123.574154" xlink:href="#C0_0_e883168e04" y="245.93871"/>
    </g>
    <g clip-path="url(#pbbb4fe7834)">
     <use style="fill:#1f77b4;" x="123.574154" xlink:href="#C0_0_e883168e04" y="245.93871"/>
    </g>
    <g clip-path="url(#pbbb4fe7834)">
     <use style="fill:#1f77b4;" x="123.574154" xlink:href="#C0_0_e883168e04" y="245.93871"/>
    </g>
    <g clip-path="url(#pbbb4fe7834)">
     <use style="fill:#1f77b4;" x="123.574154" xlink:href="#C0_0_e883168e04" y="245.93871"/>
    </g>
    <g clip-path="url(#pbbb4fe7834)">
     <use style="fill:#1f77b4;" x="123.574154" xlink:href="#C0_0_e883168e04" y="245.93871"/>
    </g>
    <g clip-path="url(#pbbb4fe7834)">
     <use style="fill:#1f77b4;" x="123.574154" xlink:href="#C0_0_e883168e04" y="244.748422"/>
    </g>
    <g clip-path="url(#pbbb4fe7834)">
     <use style="fill:#1f77b4;" x="123.574154" xlink:href="#C0_0_e883168e04" y="243.711441"/>
    </g>
    <g clip-path="url(#pbbb4fe7834)">
     <use style="fill:#1f77b4;" x="123.574154" xlink:href="#C0_0_e883168e04" y="243.711441"/>
    </g>
    <g clip-path="url(#pbbb4fe7834)">
     <use style="fill:#1f77b4;" x="123.574154" xlink:href="#C0_0_e883168e04" y="243.711441"/>
    </g>
    <g clip-path="url(#pbbb4fe7834)">
     <use style="fill:#1f77b4;" x="123.574154" xlink:href="#C0_0_e883168e04" y="243.711441"/>
    </g>
    <g clip-path="url(#pbbb4fe7834)">
     <use style="fill:#1f77b4;" x="123.574154" xlink:href="#C0_0_e883168e04" y="240.89627"/>
    </g>
    <g clip-path="url(#pbbb4fe7834)">
     <use style="fill:#1f77b4;" x="123.574154" xlink:href="#C0_0_e883168e04" y="237.627492"/>
    </g>
    <g clip-path="url(#pbbb4fe7834)">
     <use style="fill:#1f77b4;" x="123.574154" xlink:href="#C0_0_e883168e04" y="236.045021"/>
    </g>
    <g clip-path="url(#pbbb4fe7834)">
     <use style="fill:#1f77b4;" x="123.574154" xlink:href="#C0_0_e883168e04" y="230.524036"/>
    </g>
    <g clip-path="url(#pbbb4fe7834)">
     <use style="fill:#1f77b4;" x="123.574154" xlink:href="#C0_0_e883168e04" y="230.524036"/>
    </g>
    <g clip-path="url(#pbbb4fe7834)">
     <use style="fill:#1f77b4;" x="123.574154" xlink:href="#C0_0_e883168e04" y="230.524036"/>
    </g>
    <g clip-path="url(#pbbb4fe7834)">
     <use style="fill:#1f77b4;" x="123.574154" xlink:href="#C0_0_e883168e04" y="228.883413"/>
    </g>
    <g clip-path="url(#pbbb4fe7834)">
     <use style="fill:#1f77b4;" x="123.574154" xlink:href="#C0_0_e883168e04" y="228.883413"/>
    </g>
    <g clip-path="url(#pbbb4fe7834)">
     <use style="fill:#1f77b4;" x="123.574154" xlink:href="#C0_0_e883168e04" y="224.196391"/>
    </g>
    <g clip-path="url(#pbbb4fe7834)">
     <use style="fill:#1f77b4;" x="123.574154" xlink:href="#C0_0_e883168e04" y="207.083769"/>
    </g>
    <g clip-path="url(#pbbb4fe7834)">
     <use style="fill:#1f77b4;" x="123.574154" xlink:href="#C0_0_e883168e04" y="198.466918"/>
    </g>
    <g clip-path="url(#pbbb4fe7834)">
     <use style="fill:#1f77b4;" x="123.574154" xlink:href="#C0_0_e883168e04" y="163.517716"/>
    </g>
    <g clip-path="url(#pbbb4fe7834)">
     <use style="fill:#1f77b4;" x="123.574154" xlink:href="#C0_0_e883168e04" y="125.041526"/>
    </g>
    <g clip-path="url(#pbbb4fe7834)">
     <use style="fill:#1f77b4;" x="123.574154" xlink:href="#C0_0_e883168e04" y="54.777593"/>
    </g>
   </g>
   <g id="PathCollection_2">
    <defs>
     <path d="M 0 2.236068 
C 0.593012 2.236068 1.161816 2.000462 1.581139 1.581139 
C 2.000462 1.161816 2.236068 0.593012 2.236068 0 
C 2.236068 -0.593012 2.000462 -1.161816 1.581139 -1.581139 
C 1.161816 -2.000462 0.593012 -2.236068 0 -2.236068 
C -0.593012 -2.236068 -1.161816 -2.000462 -1.581139 -1.581139 
C -2.000462 -1.161816 -2.236068 -0.593012 -2.236068 0 
C -2.236068 0.593012 -2.000462 1.161816 -1.581139 1.581139 
C -1.161816 2.000462 -0.593012 2.236068 0 2.236068 
z
" id="C1_0_ba8eeed0c4"/>
    </defs>
    <g clip-path="url(#pbbb4fe7834)">
     <use style="fill:#ff7f0e;" x="309.407368" xlink:href="#C1_0_ba8eeed0c4" y="82.412308"/>
    </g>
    <g clip-path="url(#pbbb4fe7834)">
     <use style="fill:#ff7f0e;" x="240.84099" xlink:href="#C1_0_ba8eeed0c4" y="147.145297"/>
    </g>
    <g clip-path="url(#pbbb4fe7834)">
     <use style="fill:#ff7f0e;" x="193.558428" xlink:href="#C1_0_ba8eeed0c4" y="203.627652"/>
    </g>
    <g clip-path="url(#pbbb4fe7834)">
     <use style="fill:#ff7f0e;" x="192.199381" xlink:href="#C1_0_ba8eeed0c4" y="188.141137"/>
    </g>
    <g clip-path="url(#pbbb4fe7834)">
     <use style="fill:#ff7f0e;" x="192.199381" xlink:href="#C1_0_ba8eeed0c4" y="213.202216"/>
    </g>
    <g clip-path="url(#pbbb4fe7834)">
     <use style="fill:#ff7f0e;" x="184.954424" xlink:href="#C1_0_ba8eeed0c4" y="218.488619"/>
    </g>
    <g clip-path="url(#pbbb4fe7834)">
     <use style="fill:#ff7f0e;" x="184.954424" xlink:href="#C1_0_ba8eeed0c4" y="203.627652"/>
    </g>
    <g clip-path="url(#pbbb4fe7834)">
     <use style="fill:#ff7f0e;" x="180.163964" xlink:href="#C1_0_ba8eeed0c4" y="228.883413"/>
    </g>
    <g clip-path="url(#pbbb4fe7834)">
     <use style="fill:#ff7f0e;" x="180.163964" xlink:href="#C1_0_ba8eeed0c4" y="228.883413"/>
    </g>
    <g clip-path="url(#pbbb4fe7834)">
     <use style="fill:#ff7f0e;" x="173.060508" xlink:href="#C1_0_ba8eeed0c4" y="218.488619"/>
    </g>
    <g clip-path="url(#pbbb4fe7834)">
     <use style="fill:#ff7f0e;" x="166.976559" xlink:href="#C1_0_ba8eeed0c4" y="230.524036"/>
    </g>
    <g clip-path="url(#pbbb4fe7834)">
     <use style="fill:#ff7f0e;" x="164.74929" xlink:href="#C1_0_ba8eeed0c4" y="243.711441"/>
    </g>
    <g clip-path="url(#pbbb4fe7834)">
     <use style="fill:#ff7f0e;" x="162.394444" xlink:href="#C1_0_ba8eeed0c4" y="245.93871"/>
    </g>
    <g clip-path="url(#pbbb4fe7834)">
     <use style="fill:#ff7f0e;" x="154.264289" xlink:href="#C1_0_ba8eeed0c4" y="245.93871"/>
    </g>
   </g>
   <g id="matplotlib.axis_1">
    <g id="xtick_1">
     <g id="line2d_1">
      <defs>
       <path d="M 0 0 
L 0 3.5 
" id="mcf1e3bb5ce" style="stroke:#000000;stroke-width:0.8;"/>
      </defs>
      <g>
       <use style="stroke:#000000;stroke-width:0.8;" x="123.574154" xlink:href="#mcf1e3bb5ce" y="307.584"/>
      </g>
     </g>
     <g id="text_1">
      <!-- 0.0 -->
      <defs>
       <path d="M 31.78125 66.40625 
Q 24.171875 66.40625 20.328125 58.90625 
Q 16.5 51.421875 16.5 36.375 
Q 16.5 21.390625 20.328125 13.890625 
Q 24.171875 6.390625 31.78125 6.390625 
Q 39.453125 6.390625 43.28125 13.890625 
Q 47.125 21.390625 47.125 36.375 
Q 47.125 51.421875 43.28125 58.90625 
Q 39.453125 66.40625 31.78125 66.40625 
z
M 31.78125 74.21875 
Q 44.046875 74.21875 50.515625 64.515625 
Q 56.984375 54.828125 56.984375 36.375 
Q 56.984375 17.96875 50.515625 8.265625 
Q 44.046875 -1.421875 31.78125 -1.421875 
Q 19.53125 -1.421875 13.0625 8.265625 
Q 6.59375 17.96875 6.59375 36.375 
Q 6.59375 54.828125 13.0625 64.515625 
Q 19.53125 74.21875 31.78125 74.21875 
z
" id="DejaVuSans-48"/>
       <path d="M 10.6875 12.40625 
L 21 12.40625 
L 21 0 
L 10.6875 0 
z
" id="DejaVuSans-46"/>
      </defs>
      <g transform="translate(115.622591 322.182437)scale(0.1 -0.1)">
       <use xlink:href="#DejaVuSans-48"/>
       <use x="63.623047" xlink:href="#DejaVuSans-46"/>
       <use x="95.410156" xlink:href="#DejaVuSans-48"/>
      </g>
     </g>
    </g>
    <g id="xtick_2">
     <g id="line2d_2">
      <g>
       <use style="stroke:#000000;stroke-width:0.8;" x="157.886767" xlink:href="#mcf1e3bb5ce" y="307.584"/>
      </g>
     </g>
     <g id="text_2">
      <!-- 2.5 -->
      <defs>
       <path d="M 19.1875 8.296875 
L 53.609375 8.296875 
L 53.609375 0 
L 7.328125 0 
L 7.328125 8.296875 
Q 12.9375 14.109375 22.625 23.890625 
Q 32.328125 33.6875 34.8125 36.53125 
Q 39.546875 41.84375 41.421875 45.53125 
Q 43.3125 49.21875 43.3125 52.78125 
Q 43.3125 58.59375 39.234375 62.25 
Q 35.15625 65.921875 28.609375 65.921875 
Q 23.96875 65.921875 18.8125 64.3125 
Q 13.671875 62.703125 7.8125 59.421875 
L 7.8125 69.390625 
Q 13.765625 71.78125 18.9375 73 
Q 24.125 74.21875 28.421875 74.21875 
Q 39.75 74.21875 46.484375 68.546875 
Q 53.21875 62.890625 53.21875 53.421875 
Q 53.21875 48.921875 51.53125 44.890625 
Q 49.859375 40.875 45.40625 35.40625 
Q 44.1875 33.984375 37.640625 27.21875 
Q 31.109375 20.453125 19.1875 8.296875 
z
" id="DejaVuSans-50"/>
       <path d="M 10.796875 72.90625 
L 49.515625 72.90625 
L 49.515625 64.59375 
L 19.828125 64.59375 
L 19.828125 46.734375 
Q 21.96875 47.46875 24.109375 47.828125 
Q 26.265625 48.1875 28.421875 48.1875 
Q 40.625 48.1875 47.75 41.5 
Q 54.890625 34.8125 54.890625 23.390625 
Q 54.890625 11.625 47.5625 5.09375 
Q 40.234375 -1.421875 26.90625 -1.421875 
Q 22.3125 -1.421875 17.546875 -0.640625 
Q 12.796875 0.140625 7.71875 1.703125 
L 7.71875 11.625 
Q 12.109375 9.234375 16.796875 8.0625 
Q 21.484375 6.890625 26.703125 6.890625 
Q 35.15625 6.890625 40.078125 11.328125 
Q 45.015625 15.765625 45.015625 23.390625 
Q 45.015625 31 40.078125 35.4375 
Q 35.15625 39.890625 26.703125 39.890625 
Q 22.75 39.890625 18.8125 39.015625 
Q 14.890625 38.140625 10.796875 36.28125 
z
" id="DejaVuSans-53"/>
      </defs>
      <g transform="translate(149.935205 322.182437)scale(0.1 -0.1)">
       <use xlink:href="#DejaVuSans-50"/>
       <use x="63.623047" xlink:href="#DejaVuSans-46"/>
       <use x="95.410156" xlink:href="#DejaVuSans-53"/>
      </g>
     </g>
    </g>
    <g id="xtick_3">
     <g id="line2d_3">
      <g>
       <use style="stroke:#000000;stroke-width:0.8;" x="192.199381" xlink:href="#mcf1e3bb5ce" y="307.584"/>
      </g>
     </g>
     <g id="text_3">
      <!-- 5.0 -->
      <g transform="translate(184.247818 322.182437)scale(0.1 -0.1)">
       <use xlink:href="#DejaVuSans-53"/>
       <use x="63.623047" xlink:href="#DejaVuSans-46"/>
       <use x="95.410156" xlink:href="#DejaVuSans-48"/>
      </g>
     </g>
    </g>
    <g id="xtick_4">
     <g id="line2d_4">
      <g>
       <use style="stroke:#000000;stroke-width:0.8;" x="226.511994" xlink:href="#mcf1e3bb5ce" y="307.584"/>
      </g>
     </g>
     <g id="text_4">
      <!-- 7.5 -->
      <defs>
       <path d="M 8.203125 72.90625 
L 55.078125 72.90625 
L 55.078125 68.703125 
L 28.609375 0 
L 18.3125 0 
L 43.21875 64.59375 
L 8.203125 64.59375 
z
" id="DejaVuSans-55"/>
      </defs>
      <g transform="translate(218.560432 322.182437)scale(0.1 -0.1)">
       <use xlink:href="#DejaVuSans-55"/>
       <use x="63.623047" xlink:href="#DejaVuSans-46"/>
       <use x="95.410156" xlink:href="#DejaVuSans-53"/>
      </g>
     </g>
    </g>
    <g id="xtick_5">
     <g id="line2d_5">
      <g>
       <use style="stroke:#000000;stroke-width:0.8;" x="260.824608" xlink:href="#mcf1e3bb5ce" y="307.584"/>
      </g>
     </g>
     <g id="text_5">
      <!-- 10.0 -->
      <defs>
       <path d="M 12.40625 8.296875 
L 28.515625 8.296875 
L 28.515625 63.921875 
L 10.984375 60.40625 
L 10.984375 69.390625 
L 28.421875 72.90625 
L 38.28125 72.90625 
L 38.28125 8.296875 
L 54.390625 8.296875 
L 54.390625 0 
L 12.40625 0 
z
" id="DejaVuSans-49"/>
      </defs>
      <g transform="translate(249.691795 322.182437)scale(0.1 -0.1)">
       <use xlink:href="#DejaVuSans-49"/>
       <use x="63.623047" xlink:href="#DejaVuSans-48"/>
       <use x="127.246094" xlink:href="#DejaVuSans-46"/>
       <use x="159.033203" xlink:href="#DejaVuSans-48"/>
      </g>
     </g>
    </g>
    <g id="xtick_6">
     <g id="line2d_6">
      <g>
       <use style="stroke:#000000;stroke-width:0.8;" x="295.137221" xlink:href="#mcf1e3bb5ce" y="307.584"/>
      </g>
     </g>
     <g id="text_6">
      <!-- 12.5 -->
      <g transform="translate(284.004409 322.182437)scale(0.1 -0.1)">
       <use xlink:href="#DejaVuSans-49"/>
       <use x="63.623047" xlink:href="#DejaVuSans-50"/>
       <use x="127.246094" xlink:href="#DejaVuSans-46"/>
       <use x="159.033203" xlink:href="#DejaVuSans-53"/>
      </g>
     </g>
    </g>
    <g id="xtick_7">
     <g id="line2d_7">
      <g>
       <use style="stroke:#000000;stroke-width:0.8;" x="329.449835" xlink:href="#mcf1e3bb5ce" y="307.584"/>
      </g>
     </g>
     <g id="text_7">
      <!-- 15.0 -->
      <g transform="translate(318.317022 322.182437)scale(0.1 -0.1)">
       <use xlink:href="#DejaVuSans-49"/>
       <use x="63.623047" xlink:href="#DejaVuSans-53"/>
       <use x="127.246094" xlink:href="#DejaVuSans-46"/>
       <use x="159.033203" xlink:href="#DejaVuSans-48"/>
      </g>
     </g>
    </g>
    <g id="xtick_8">
     <g id="line2d_8">
      <g>
       <use style="stroke:#000000;stroke-width:0.8;" x="363.762448" xlink:href="#mcf1e3bb5ce" y="307.584"/>
      </g>
     </g>
     <g id="text_8">
      <!-- 17.5 -->
      <g transform="translate(352.629636 322.182437)scale(0.1 -0.1)">
       <use xlink:href="#DejaVuSans-49"/>
       <use x="63.623047" xlink:href="#DejaVuSans-55"/>
       <use x="127.246094" xlink:href="#DejaVuSans-46"/>
       <use x="159.033203" xlink:href="#DejaVuSans-53"/>
      </g>
     </g>
    </g>
    <g id="text_9">
     <!-- Birth -->
     <defs>
      <path d="M 19.671875 34.8125 
L 19.671875 8.109375 
L 35.5 8.109375 
Q 43.453125 8.109375 47.28125 11.40625 
Q 51.125 14.703125 51.125 21.484375 
Q 51.125 28.328125 47.28125 31.5625 
Q 43.453125 34.8125 35.5 34.8125 
z
M 19.671875 64.796875 
L 19.671875 42.828125 
L 34.28125 42.828125 
Q 41.5 42.828125 45.03125 45.53125 
Q 48.578125 48.25 48.578125 53.8125 
Q 48.578125 59.328125 45.03125 62.0625 
Q 41.5 64.796875 34.28125 64.796875 
z
M 9.8125 72.90625 
L 35.015625 72.90625 
Q 46.296875 72.90625 52.390625 68.21875 
Q 58.5 63.53125 58.5 54.890625 
Q 58.5 48.1875 55.375 44.234375 
Q 52.25 40.28125 46.1875 39.3125 
Q 53.46875 37.75 57.5 32.78125 
Q 61.53125 27.828125 61.53125 20.40625 
Q 61.53125 10.640625 54.890625 5.3125 
Q 48.25 0 35.984375 0 
L 9.8125 0 
z
" id="DejaVuSans-66"/>
      <path d="M 9.421875 54.6875 
L 18.40625 54.6875 
L 18.40625 0 
L 9.421875 0 
z
M 9.421875 75.984375 
L 18.40625 75.984375 
L 18.40625 64.59375 
L 9.421875 64.59375 
z
" id="DejaVuSans-105"/>
      <path d="M 41.109375 46.296875 
Q 39.59375 47.171875 37.8125 47.578125 
Q 36.03125 48 33.890625 48 
Q 26.265625 48 22.1875 43.046875 
Q 18.109375 38.09375 18.109375 28.8125 
L 18.109375 0 
L 9.078125 0 
L 9.078125 54.6875 
L 18.109375 54.6875 
L 18.109375 46.1875 
Q 20.953125 51.171875 25.484375 53.578125 
Q 30.03125 56 36.53125 56 
Q 37.453125 56 38.578125 55.875 
Q 39.703125 55.765625 41.0625 55.515625 
z
" id="DejaVuSans-114"/>
      <path d="M 18.3125 70.21875 
L 18.3125 54.6875 
L 36.8125 54.6875 
L 36.8125 47.703125 
L 18.3125 47.703125 
L 18.3125 18.015625 
Q 18.3125 11.328125 20.140625 9.421875 
Q 21.96875 7.515625 27.59375 7.515625 
L 36.8125 7.515625 
L 36.8125 0 
L 27.59375 0 
Q 17.1875 0 13.234375 3.875 
Q 9.28125 7.765625 9.28125 18.015625 
L 9.28125 47.703125 
L 2.6875 47.703125 
L 2.6875 54.6875 
L 9.28125 54.6875 
L 9.28125 70.21875 
z
" id="DejaVuSans-116"/>
      <path d="M 54.890625 33.015625 
L 54.890625 0 
L 45.90625 0 
L 45.90625 32.71875 
Q 45.90625 40.484375 42.875 44.328125 
Q 39.84375 48.1875 33.796875 48.1875 
Q 26.515625 48.1875 22.3125 43.546875 
Q 18.109375 38.921875 18.109375 30.90625 
L 18.109375 0 
L 9.078125 0 
L 9.078125 75.984375 
L 18.109375 75.984375 
L 18.109375 46.1875 
Q 21.34375 51.125 25.703125 53.5625 
Q 30.078125 56 35.796875 56 
Q 45.21875 56 50.046875 50.171875 
Q 54.890625 44.34375 54.890625 33.015625 
z
" id="DejaVuSans-104"/>
     </defs>
     <g transform="translate(224.156094 335.860562)scale(0.1 -0.1)">
      <use xlink:href="#DejaVuSans-66"/>
      <use x="68.603516" xlink:href="#DejaVuSans-105"/>
      <use x="96.386719" xlink:href="#DejaVuSans-114"/>
      <use x="137.5" xlink:href="#DejaVuSans-116"/>
      <use x="176.708984" xlink:href="#DejaVuSans-104"/>
     </g>
    </g>
   </g>
   <g id="matplotlib.axis_2">
    <g id="ytick_1">
     <g id="line2d_9">
      <defs>
       <path d="M 0 0 
L -3.5 0 
" id="m60cc61ea3e" style="stroke:#000000;stroke-width:0.8;"/>
      </defs>
      <g>
       <use style="stroke:#000000;stroke-width:0.8;" x="103.104" xlink:href="#m60cc61ea3e" y="287.113846"/>
      </g>
     </g>
     <g id="text_10">
      <!-- 0.0 -->
      <g transform="translate(80.200875 290.913065)scale(0.1 -0.1)">
       <use xlink:href="#DejaVuSans-48"/>
       <use x="63.623047" xlink:href="#DejaVuSans-46"/>
       <use x="95.410156" xlink:href="#DejaVuSans-48"/>
      </g>
     </g>
    </g>
    <g id="ytick_2">
     <g id="line2d_10">
      <g>
       <use style="stroke:#000000;stroke-width:0.8;" x="103.104" xlink:href="#m60cc61ea3e" y="252.801233"/>
      </g>
     </g>
     <g id="text_11">
      <!-- 2.5 -->
      <g transform="translate(80.200875 256.600451)scale(0.1 -0.1)">
       <use xlink:href="#DejaVuSans-50"/>
       <use x="63.623047" xlink:href="#DejaVuSans-46"/>
       <use x="95.410156" xlink:href="#DejaVuSans-53"/>
      </g>
     </g>
    </g>
    <g id="ytick_3">
     <g id="line2d_11">
      <g>
       <use style="stroke:#000000;stroke-width:0.8;" x="103.104" xlink:href="#m60cc61ea3e" y="218.488619"/>
      </g>
     </g>
     <g id="text_12">
      <!-- 5.0 -->
      <g transform="translate(80.200875 222.287838)scale(0.1 -0.1)">
       <use xlink:href="#DejaVuSans-53"/>
       <use x="63.623047" xlink:href="#DejaVuSans-46"/>
       <use x="95.410156" xlink:href="#DejaVuSans-48"/>
      </g>
     </g>
    </g>
    <g id="ytick_4">
     <g id="line2d_12">
      <g>
       <use style="stroke:#000000;stroke-width:0.8;" x="103.104" xlink:href="#m60cc61ea3e" y="184.176006"/>
      </g>
     </g>
     <g id="text_13">
      <!-- 7.5 -->
      <g transform="translate(80.200875 187.975224)scale(0.1 -0.1)">
       <use xlink:href="#DejaVuSans-55"/>
       <use x="63.623047" xlink:href="#DejaVuSans-46"/>
       <use x="95.410156" xlink:href="#DejaVuSans-53"/>
      </g>
     </g>
    </g>
    <g id="ytick_5">
     <g id="line2d_13">
      <g>
       <use style="stroke:#000000;stroke-width:0.8;" x="103.104" xlink:href="#m60cc61ea3e" y="149.863392"/>
      </g>
     </g>
     <g id="text_14">
      <!-- 10.0 -->
      <g transform="translate(73.838375 153.662611)scale(0.1 -0.1)">
       <use xlink:href="#DejaVuSans-49"/>
       <use x="63.623047" xlink:href="#DejaVuSans-48"/>
       <use x="127.246094" xlink:href="#DejaVuSans-46"/>
       <use x="159.033203" xlink:href="#DejaVuSans-48"/>
      </g>
     </g>
    </g>
    <g id="ytick_6">
     <g id="line2d_14">
      <g>
       <use style="stroke:#000000;stroke-width:0.8;" x="103.104" xlink:href="#m60cc61ea3e" y="115.550779"/>
      </g>
     </g>
     <g id="text_15">
      <!-- 12.5 -->
      <g transform="translate(73.838375 119.349997)scale(0.1 -0.1)">
       <use xlink:href="#DejaVuSans-49"/>
       <use x="63.623047" xlink:href="#DejaVuSans-50"/>
       <use x="127.246094" xlink:href="#DejaVuSans-46"/>
       <use x="159.033203" xlink:href="#DejaVuSans-53"/>
      </g>
     </g>
    </g>
    <g id="ytick_7">
     <g id="line2d_15">
      <g>
       <use style="stroke:#000000;stroke-width:0.8;" x="103.104" xlink:href="#m60cc61ea3e" y="81.238165"/>
      </g>
     </g>
     <g id="text_16">
      <!-- 15.0 -->
      <g transform="translate(73.838375 85.037384)scale(0.1 -0.1)">
       <use xlink:href="#DejaVuSans-49"/>
       <use x="63.623047" xlink:href="#DejaVuSans-53"/>
       <use x="127.246094" xlink:href="#DejaVuSans-46"/>
       <use x="159.033203" xlink:href="#DejaVuSans-48"/>
      </g>
     </g>
    </g>
    <g id="ytick_8">
     <g id="line2d_16">
      <g>
       <use style="stroke:#000000;stroke-width:0.8;" x="103.104" xlink:href="#m60cc61ea3e" y="46.925552"/>
      </g>
     </g>
     <g id="text_17">
      <!-- 17.5 -->
      <g transform="translate(73.838375 50.72477)scale(0.1 -0.1)">
       <use xlink:href="#DejaVuSans-49"/>
       <use x="63.623047" xlink:href="#DejaVuSans-55"/>
       <use x="127.246094" xlink:href="#DejaVuSans-46"/>
       <use x="159.033203" xlink:href="#DejaVuSans-53"/>
      </g>
     </g>
    </g>
    <g id="text_18">
     <!-- Death -->
     <defs>
      <path d="M 19.671875 64.796875 
L 19.671875 8.109375 
L 31.59375 8.109375 
Q 46.6875 8.109375 53.6875 14.9375 
Q 60.6875 21.78125 60.6875 36.53125 
Q 60.6875 51.171875 53.6875 57.984375 
Q 46.6875 64.796875 31.59375 64.796875 
z
M 9.8125 72.90625 
L 30.078125 72.90625 
Q 51.265625 72.90625 61.171875 64.09375 
Q 71.09375 55.28125 71.09375 36.53125 
Q 71.09375 17.671875 61.125 8.828125 
Q 51.171875 0 30.078125 0 
L 9.8125 0 
z
" id="DejaVuSans-68"/>
      <path d="M 56.203125 29.59375 
L 56.203125 25.203125 
L 14.890625 25.203125 
Q 15.484375 15.921875 20.484375 11.0625 
Q 25.484375 6.203125 34.421875 6.203125 
Q 39.59375 6.203125 44.453125 7.46875 
Q 49.3125 8.734375 54.109375 11.28125 
L 54.109375 2.78125 
Q 49.265625 0.734375 44.1875 -0.34375 
Q 39.109375 -1.421875 33.890625 -1.421875 
Q 20.796875 -1.421875 13.15625 6.1875 
Q 5.515625 13.8125 5.515625 26.8125 
Q 5.515625 40.234375 12.765625 48.109375 
Q 20.015625 56 32.328125 56 
Q 43.359375 56 49.78125 48.890625 
Q 56.203125 41.796875 56.203125 29.59375 
z
M 47.21875 32.234375 
Q 47.125 39.59375 43.09375 43.984375 
Q 39.0625 48.390625 32.421875 48.390625 
Q 24.90625 48.390625 20.390625 44.140625 
Q 15.875 39.890625 15.1875 32.171875 
z
" id="DejaVuSans-101"/>
      <path d="M 34.28125 27.484375 
Q 23.390625 27.484375 19.1875 25 
Q 14.984375 22.515625 14.984375 16.5 
Q 14.984375 11.71875 18.140625 8.90625 
Q 21.296875 6.109375 26.703125 6.109375 
Q 34.1875 6.109375 38.703125 11.40625 
Q 43.21875 16.703125 43.21875 25.484375 
L 43.21875 27.484375 
z
M 52.203125 31.203125 
L 52.203125 0 
L 43.21875 0 
L 43.21875 8.296875 
Q 40.140625 3.328125 35.546875 0.953125 
Q 30.953125 -1.421875 24.3125 -1.421875 
Q 15.921875 -1.421875 10.953125 3.296875 
Q 6 8.015625 6 15.921875 
Q 6 25.140625 12.171875 29.828125 
Q 18.359375 34.515625 30.609375 34.515625 
L 43.21875 34.515625 
L 43.21875 35.40625 
Q 43.21875 41.609375 39.140625 45 
Q 35.0625 48.390625 27.6875 48.390625 
Q 23 48.390625 18.546875 47.265625 
Q 14.109375 46.140625 10.015625 43.890625 
L 10.015625 52.203125 
Q 14.9375 54.109375 19.578125 55.046875 
Q 24.21875 56 28.609375 56 
Q 40.484375 56 46.34375 49.84375 
Q 52.203125 43.703125 52.203125 31.203125 
z
" id="DejaVuSans-97"/>
     </defs>
     <g transform="translate(67.758688 189.647531)rotate(-90)scale(0.1 -0.1)">
      <use xlink:href="#DejaVuSans-68"/>
      <use x="77.001953" xlink:href="#DejaVuSans-101"/>
      <use x="138.525391" xlink:href="#DejaVuSans-97"/>
      <use x="199.804688" xlink:href="#DejaVuSans-116"/>
      <use x="239.013672" xlink:href="#DejaVuSans-104"/>
     </g>
    </g>
   </g>
   <g id="line2d_17">
    <path clip-path="url(#pbbb4fe7834)" d="M 103.104 307.584 
L 369.216 41.472 
" style="fill:none;stroke:#000000;stroke-dasharray:5.55,2.4;stroke-dashoffset:0;stroke-width:1.5;"/>
   </g>
   <g id="line2d_18">
    <path clip-path="url(#pbbb4fe7834)" d="M 103.104 54.7776 
L 369.216 54.7776 
" style="fill:none;stroke:#000000;stroke-dasharray:5.55,2.4;stroke-dashoffset:0;stroke-width:1.5;"/>
   </g>
   <g id="patch_3">
    <path d="M 103.104 307.584 
L 103.104 41.472 
" style="fill:none;stroke:#000000;stroke-linecap:square;stroke-linejoin:miter;stroke-width:0.8;"/>
   </g>
   <g id="patch_4">
    <path d="M 369.216 307.584 
L 369.216 41.472 
" style="fill:none;stroke:#000000;stroke-linecap:square;stroke-linejoin:miter;stroke-width:0.8;"/>
   </g>
   <g id="patch_5">
    <path d="M 103.104 307.584 
L 369.216 307.584 
" style="fill:none;stroke:#000000;stroke-linecap:square;stroke-linejoin:miter;stroke-width:0.8;"/>
   </g>
   <g id="patch_6">
    <path d="M 103.104 41.472 
L 369.216 41.472 
" style="fill:none;stroke:#000000;stroke-linecap:square;stroke-linejoin:miter;stroke-width:0.8;"/>
   </g>
   <g id="legend_1">
    <g id="patch_7">
     <path d="M 317.916 302.584 
L 362.216 302.584 
Q 364.216 302.584 364.216 300.584 
L 364.216 257.549625 
Q 364.216 255.549625 362.216 255.549625 
L 317.916 255.549625 
Q 315.916 255.549625 315.916 257.549625 
L 315.916 300.584 
Q 315.916 302.584 317.916 302.584 
z
" style="fill:#ffffff;opacity:0.8;stroke:#cccccc;stroke-linejoin:miter;"/>
    </g>
    <g id="line2d_19">
     <path d="M 319.916 263.648062 
L 339.916 263.648062 
" style="fill:none;stroke:#000000;stroke-dasharray:5.55,2.4;stroke-dashoffset:0;stroke-width:1.5;"/>
    </g>
    <g id="line2d_20"/>
    <g id="text_19">
     <!-- $\infty$ -->
     <defs>
      <path d="M 45.5625 17.046875 
Q 44.046875 18.796875 41.65625 22.90625 
Q 38.375 17.046875 35.5 14.453125 
Q 31.890625 11.328125 26.265625 11.328125 
Q 19.671875 11.328125 15.328125 16.265625 
Q 10.75 21.4375 10.75 29.984375 
Q 10.75 38.1875 15.328125 43.75 
Q 19.4375 48.6875 26.375 48.6875 
Q 29.9375 48.6875 32.5625 47.21875 
Q 35.640625 45.609375 37.75 42.828125 
Q 39.703125 40.328125 41.65625 36.96875 
Q 44.921875 42.828125 47.796875 45.40625 
Q 51.421875 48.53125 57.03125 48.53125 
Q 63.625 48.53125 67.96875 43.609375 
Q 72.5625 38.421875 72.5625 29.890625 
Q 72.5625 21.6875 67.96875 16.109375 
Q 63.875 11.1875 56.9375 11.1875 
Q 53.375 11.1875 50.734375 12.640625 
Q 48.09375 13.96875 45.5625 17.046875 
z
M 25.734375 17.71875 
Q 33.796875 17.71875 38.625 29.4375 
Q 32.421875 42.234375 25.734375 42.234375 
Q 20.84375 42.234375 18.359375 38.71875 
Q 15.671875 34.96875 15.671875 29.984375 
Q 15.671875 24.515625 18.359375 21.140625 
Q 21.09375 17.71875 25.734375 17.71875 
z
M 57.5625 42.140625 
Q 50.296875 42.140625 44.671875 30.421875 
Q 50.828125 17.625 57.5625 17.625 
Q 62.453125 17.625 64.9375 21.140625 
Q 67.625 24.90625 67.625 29.890625 
Q 67.625 35.359375 64.9375 38.71875 
Q 62.203125 42.140625 57.5625 42.140625 
z
" id="DejaVuSans-8734"/>
     </defs>
     <g transform="translate(347.916 267.148062)scale(0.1 -0.1)">
      <use transform="translate(0 0.3125)" xlink:href="#DejaVuSans-8734"/>
     </g>
    </g>
    <g id="PathCollection_3">
     <path d="M 329.916 281.437255 
C 330.509012 281.437255 331.077816 281.201649 331.497139 280.782326 
C 331.916462 280.363003 332.152068 279.7942 332.152068 279.201187 
C 332.152068 278.608175 331.916462 278.039372 331.497139 277.620049 
C 331.077816 277.200726 330.509012 276.96512 329.916 276.96512 
C 329.322988 276.96512 328.754184 277.200726 328.334861 277.620049 
C 327.915538 278.039372 327.679932 278.608175 327.679932 279.201187 
C 327.679932 279.7942 327.915538 280.363003 328.334861 280.782326 
C 328.754184 281.201649 329.322988 281.437255 329.916 281.437255 
z
" style="fill:#1f77b4;"/>
    </g>
    <g id="text_20">
     <!-- $H_0$ -->
     <defs>
      <path d="M 16.890625 72.90625 
L 26.8125 72.90625 
L 21 43.015625 
L 56.78125 43.015625 
L 62.59375 72.90625 
L 72.515625 72.90625 
L 58.296875 0 
L 48.390625 0 
L 55.171875 34.71875 
L 19.390625 34.71875 
L 12.59375 0 
L 2.6875 0 
z
" id="DejaVuSans-Oblique-72"/>
     </defs>
     <g transform="translate(347.916 281.826188)scale(0.1 -0.1)">
      <use transform="translate(0 0.09375)" xlink:href="#DejaVuSans-Oblique-72"/>
      <use transform="translate(75.195312 -16.3125)scale(0.7)" xlink:href="#DejaVuSans-48"/>
     </g>
    </g>
    <g id="PathCollection_4">
     <path d="M 329.916 296.11538 
C 330.509012 296.11538 331.077816 295.879774 331.497139 295.460451 
C 331.916462 295.041128 332.152068 294.472325 332.152068 293.879312 
C 332.152068 293.2863 331.916462 292.717497 331.497139 292.298174 
C 331.077816 291.878851 330.509012 291.643245 329.916 291.643245 
C 329.322988 291.643245 328.754184 291.878851 328.334861 292.298174 
C 327.915538 292.717497 327.679932 293.2863 327.679932 293.879312 
C 327.679932 294.472325 327.915538 295.041128 328.334861 295.460451 
C 328.754184 295.879774 329.322988 296.11538 329.916 296.11538 
z
" style="fill:#ff7f0e;"/>
    </g>
    <g id="text_21">
     <!-- $H_1$ -->
     <g transform="translate(347.916 296.504312)scale(0.1 -0.1)">
      <use transform="translate(0 0.09375)" xlink:href="#DejaVuSans-Oblique-72"/>
      <use transform="translate(75.195312 -16.3125)scale(0.7)" xlink:href="#DejaVuSans-49"/>
     </g>
    </g>
   </g>
  </g>
 </g>
 <defs>
  <clipPath id="pbbb4fe7834">
   <rect height="266.112" width="266.112" x="103.104" y="41.472"/>
  </clipPath>
 </defs>
</svg>
